<svg xmlns="http://www.w3.org/2000/svg" viewBox="0 0 1200 100" width="1200" height="100">
<style>
.m{font:600 12px ui-monospace,Menlo,Consolas,monospace;letter-spacing:2px}
.hd{animation:hd 10s ease-in-out infinite}.cr{animation:cr 10s infinite}
.core{animation:core 10s infinite}.gl{opacity:0;filter:blur(7px);animation:gl 10s infinite}
.fan{animation:fan 10s linear infinite}
.al{stroke:#67e8f9;stroke-width:2;stroke-linecap:round;stroke-dasharray:14 10;opacity:0;animation:air 10s infinite,flow .4s linear infinite}
@keyframes flow{to{stroke-dashoffset:-24}}
.ht{stroke:#f97316;stroke-width:3;stroke-linecap:round;stroke-dasharray:16 120;opacity:0;animation:heat 10s infinite,run 1s linear infinite;filter:drop-shadow(0 0 4px #f97316)}
@keyframes run{from{stroke-dashoffset:136}to{stroke-dashoffset:0}}
.bar{transform-box:fill-box;transform-origin:left;animation:br 10s infinite}
text{opacity:0}.lbl{opacity:1}
@keyframes hd{0.0%,3.3%{transform:translate(130px,0)}12.1%{transform:translate(330px,0)}14.3%{transform:translate(330px,14px)}16.5%{transform:translate(330px,0)}22.0%,25.3%{transform:translate(130px,0)}34.1%{transform:translate(460px,0)}36.3%{transform:translate(460px,14px)}38.5%{transform:translate(460px,0)}44.0%,47.3%{transform:translate(130px,0)}56.1%{transform:translate(590px,0)}58.3%{transform:translate(590px,14px)}60.5%{transform:translate(590px,0)}66.0%,100%{transform:translate(130px,0)}}@keyframes cr{0.0%{opacity:0}3.3%,14.3%{opacity:1}14.4%{opacity:0}22.0%{opacity:0}25.3%,36.3%{opacity:1}36.4%{opacity:0}44.0%{opacity:0}47.3%,58.3%{opacity:1}58.4%{opacity:0}100%{opacity:0}}@keyframes p0{0%,14.3%{opacity:0}14.4%,97%{opacity:1}100%{opacity:0}}@keyframes p1{0%,36.3%{opacity:0}36.4%,97%{opacity:1}100%{opacity:0}}@keyframes p2{0%,58.3%{opacity:0}58.4%,97%{opacity:1}100%{opacity:0}}@keyframes t0{0%,0.00%{opacity:0}0.00%,14.29%{opacity:1}14.30%,100%{opacity:0}}@keyframes t1{0%,14.29%{opacity:0}14.30%,36.29%{opacity:1}36.30%,100%{opacity:0}}@keyframes t2{0%,36.29%{opacity:0}36.30%,58.29%{opacity:1}58.30%,100%{opacity:0}}@keyframes t3{0%,58.29%{opacity:0}58.30%,69.99%{opacity:1}70.00%,100%{opacity:0}}@keyframes t4{0%,69.99%{opacity:0}70.00%,75.99%{opacity:1}76.00%,100%{opacity:0}}@keyframes t5{0%,75.99%{opacity:0}76.00%,81.99%{opacity:1}82.00%,100%{opacity:0}}@keyframes t6{0%,81.99%{opacity:0}82.00%,99.99%{opacity:1}100.00%,100%{opacity:0}}@keyframes br{0.00%{transform:scaleX(0.17);fill:#86efac}14.28%{transform:scaleX(0.17);fill:#86efac}14.30%{transform:scaleX(0.40);fill:#86efac}36.28%{transform:scaleX(0.40);fill:#86efac}36.30%{transform:scaleX(0.63);fill:#fbbf24}58.28%{transform:scaleX(0.63);fill:#fbbf24}58.30%{transform:scaleX(0.89);fill:#f87171}69.98%{transform:scaleX(0.89);fill:#f87171}70.00%{transform:scaleX(0.71);fill:#fbbf24}75.98%{transform:scaleX(0.71);fill:#fbbf24}76.00%{transform:scaleX(0.51);fill:#fbbf24}81.98%{transform:scaleX(0.51);fill:#fbbf24}82.00%{transform:scaleX(0.29);fill:#86efac}99.98%{transform:scaleX(0.29);fill:#86efac}}@keyframes s0{0%,0.00%{opacity:0}0.00%,58.29%{opacity:1}58.30%,100%{opacity:0}}@keyframes s1{0%,58.29%{opacity:0}58.30%,69.99%{opacity:1}70.00%,100%{opacity:0}}@keyframes s2{0%,69.99%{opacity:0}70.00%,87.99%{opacity:1}88.00%,100%{opacity:0}}@keyframes s3{0%,87.99%{opacity:0}88.00%,99.99%{opacity:1}100.00%,100%{opacity:0}}@keyframes fan{0%{transform:rotate(0.0deg)}1%{transform:rotate(13.0deg)}2%{transform:rotate(26.0deg)}3%{transform:rotate(39.0deg)}4%{transform:rotate(52.0deg)}5%{transform:rotate(65.0deg)}6%{transform:rotate(78.0deg)}7%{transform:rotate(90.9deg)}8%{transform:rotate(103.9deg)}9%{transform:rotate(116.9deg)}10%{transform:rotate(129.9deg)}11%{transform:rotate(142.9deg)}12%{transform:rotate(155.9deg)}13%{transform:rotate(168.9deg)}14%{transform:rotate(181.9deg)}15%{transform:rotate(194.9deg)}16%{transform:rotate(207.9deg)}17%{transform:rotate(220.9deg)}18%{transform:rotate(233.9deg)}19%{transform:rotate(246.9deg)}20%{transform:rotate(259.8deg)}21%{transform:rotate(272.8deg)}22%{transform:rotate(285.8deg)}23%{transform:rotate(298.8deg)}24%{transform:rotate(311.8deg)}25%{transform:rotate(324.8deg)}26%{transform:rotate(337.8deg)}27%{transform:rotate(350.8deg)}28%{transform:rotate(363.8deg)}29%{transform:rotate(376.8deg)}30%{transform:rotate(389.8deg)}31%{transform:rotate(402.8deg)}32%{transform:rotate(415.8deg)}33%{transform:rotate(428.8deg)}34%{transform:rotate(441.7deg)}35%{transform:rotate(454.7deg)}36%{transform:rotate(467.7deg)}37%{transform:rotate(480.7deg)}38%{transform:rotate(493.7deg)}39%{transform:rotate(506.7deg)}40%{transform:rotate(519.7deg)}41%{transform:rotate(532.7deg)}42%{transform:rotate(545.7deg)}43%{transform:rotate(558.7deg)}44%{transform:rotate(571.7deg)}45%{transform:rotate(584.7deg)}46%{transform:rotate(597.7deg)}47%{transform:rotate(610.6deg)}48%{transform:rotate(623.6deg)}49%{transform:rotate(636.6deg)}50%{transform:rotate(649.6deg)}51%{transform:rotate(662.6deg)}52%{transform:rotate(675.6deg)}53%{transform:rotate(688.6deg)}54%{transform:rotate(701.6deg)}55%{transform:rotate(714.6deg)}56%{transform:rotate(727.6deg)}57%{transform:rotate(740.6deg)}58%{transform:rotate(753.6deg)}59%{transform:rotate(766.6deg)}60%{transform:rotate(779.5deg)}61%{transform:rotate(792.5deg)}62%{transform:rotate(805.5deg)}63%{transform:rotate(818.5deg)}64%{transform:rotate(831.5deg)}65%{transform:rotate(844.5deg)}66%{transform:rotate(857.5deg)}67%{transform:rotate(870.5deg)}68%{transform:rotate(883.5deg)}69%{transform:rotate(896.5deg)}70%{transform:rotate(909.5deg)}71%{transform:rotate(1006.9deg)}72%{transform:rotate(1104.4deg)}73%{transform:rotate(1201.8deg)}74%{transform:rotate(1299.2deg)}75%{transform:rotate(1396.7deg)}76%{transform:rotate(1494.1deg)}77%{transform:rotate(1591.6deg)}78%{transform:rotate(1689.0deg)}79%{transform:rotate(1786.5deg)}80%{transform:rotate(1883.9deg)}81%{transform:rotate(1981.4deg)}82%{transform:rotate(2078.8deg)}83%{transform:rotate(2176.2deg)}84%{transform:rotate(2273.7deg)}85%{transform:rotate(2371.1deg)}86%{transform:rotate(2468.6deg)}87%{transform:rotate(2566.0deg)}88%{transform:rotate(2663.5deg)}89%{transform:rotate(2695.9deg)}90%{transform:rotate(2728.4deg)}91%{transform:rotate(2760.9deg)}92%{transform:rotate(2793.4deg)}93%{transform:rotate(2825.9deg)}94%{transform:rotate(2858.3deg)}95%{transform:rotate(2890.8deg)}96%{transform:rotate(2923.3deg)}97%{transform:rotate(2955.8deg)}98%{transform:rotate(2988.3deg)}99%{transform:rotate(3020.8deg)}100%{transform:rotate(3053.2deg)}}@keyframes core{0%,58.3%{fill:#4ade80}61.3%,70.0%{fill:#f87171}82.0%{fill:#fbbf24}88.0%,100%{fill:#4ade80}}@keyframes gl{0%,58.3%{opacity:0}61.3%,70.0%{opacity:.5}88.0%,100%{opacity:0}}@keyframes air{0%,69.99%{opacity:0}70.00%,89.99%{opacity:1}90.00%,100%{opacity:0}}@keyframes heat{0%,58.29%{opacity:0}58.30%,87.99%{opacity:1}88.00%,100%{opacity:0}}
</style>
<rect x="1" y="1" width="1198" height="98" rx="14" fill="#03140e" stroke="#b8873b" stroke-opacity=".4" stroke-width="2"/><circle cx="18" cy="18" r="5" fill="#03120d" stroke="#b8873b" stroke-width="2"/><circle cx="18" cy="82" r="5" fill="#03120d" stroke="#b8873b" stroke-width="2"/><circle cx="1182" cy="18" r="5" fill="#03120d" stroke="#b8873b" stroke-width="2"/><circle cx="1182" cy="82" r="5" fill="#03120d" stroke="#b8873b" stroke-width="2"/>
<line x1="50" y1="20" x2="650" y2="20" stroke="#334155" stroke-width="6" stroke-linecap="round"/>
<circle cx="130" cy="62" r="24" fill="none" stroke="#94a3b8" stroke-width="3" stroke-dasharray="6 6"><animateTransform attributeName="transform" type="rotate" from="0 130 62" to="-360 130 62" dur="6s" repeatCount="indefinite"/></circle><circle cx="130" cy="62" r="6" fill="#94a3b8"/>
<text x="130" y="96" text-anchor="middle" class="m lbl" style="font-size:9px;fill:#4b7a63">REEL</text>
<rect x="300" y="48" width="60" height="38" rx="6" fill="#f97316" class="gl"/><rect x="430" y="48" width="60" height="38" rx="6" fill="#f97316" class="gl"/><rect x="560" y="48" width="60" height="38" rx="6" fill="#f97316" class="gl"/>
<line x1="330" y1="80" x2="700" y2="80" stroke="#134e3a" stroke-width="3"/><line x1="330" y1="80" x2="700" y2="80" class="ht"/>
<rect x="312" y="74" width="36" height="6" fill="#b8873b" opacity=".7"/><rect x="442" y="74" width="36" height="6" fill="#b8873b" opacity=".7"/><rect x="572" y="74" width="36" height="6" fill="#b8873b" opacity=".7"/>
<g style="opacity:0;animation:p0 10s infinite"><rect x="316" y="58" width="28" height="16" rx="2" fill="#111827" stroke="#334155"/><rect x="320" y="63" width="6" height="6" class="core"/></g><g style="opacity:0;animation:p1 10s infinite"><rect x="446" y="58" width="28" height="16" rx="2" fill="#111827" stroke="#334155"/><rect x="450" y="63" width="6" height="6" class="core"/></g><g style="opacity:0;animation:p2 10s infinite"><rect x="576" y="58" width="28" height="16" rx="2" fill="#111827" stroke="#334155"/><rect x="580" y="63" width="6" height="6" class="core"/></g>
<g class="hd"><rect x="-12" y="14" width="24" height="16" rx="3" fill="#cbd5e1"/><rect x="-2" y="30" width="4" height="20" fill="#94a3b8"/><g class="cr"><rect x="-14" y="50" width="28" height="16" rx="2" fill="#111827" stroke="#334155"/><rect x="-10" y="55" width="6" height="6" class="core"/></g></g>
<rect x="700" y="20" width="5" height="60" rx="1" fill="#475569"/><rect x="710" y="20" width="5" height="60" rx="1" fill="#475569"/><rect x="720" y="20" width="5" height="60" rx="1" fill="#475569"/><rect x="730" y="20" width="5" height="60" rx="1" fill="#475569"/><rect x="740" y="20" width="5" height="60" rx="1" fill="#475569"/><rect x="750" y="20" width="5" height="60" rx="1" fill="#475569"/><rect x="760" y="20" width="5" height="60" rx="1" fill="#475569"/><rect x="770" y="20" width="5" height="60" rx="1" fill="#475569"/><rect x="780" y="20" width="5" height="60" rx="1" fill="#475569"/>
<g transform="translate(860 50)"><circle r="38" fill="#0b1120" stroke="#334155" stroke-width="3"/><g class="fan"><path d="M0 0C10 -8 26 -6 30 4C20 4 10 6 0 0Z" fill="#64748b" transform="rotate(0)"/><path d="M0 0C10 -8 26 -6 30 4C20 4 10 6 0 0Z" fill="#64748b" transform="rotate(51)"/><path d="M0 0C10 -8 26 -6 30 4C20 4 10 6 0 0Z" fill="#64748b" transform="rotate(103)"/><path d="M0 0C10 -8 26 -6 30 4C20 4 10 6 0 0Z" fill="#64748b" transform="rotate(154)"/><path d="M0 0C10 -8 26 -6 30 4C20 4 10 6 0 0Z" fill="#64748b" transform="rotate(206)"/><path d="M0 0C10 -8 26 -6 30 4C20 4 10 6 0 0Z" fill="#64748b" transform="rotate(257)"/><path d="M0 0C10 -8 26 -6 30 4C20 4 10 6 0 0Z" fill="#64748b" transform="rotate(309)"/></g><circle r="8" fill="#1e293b"/></g>
<line x1="915" y1="34" x2="985" y2="34" class="al" style="animation-delay:-0s"/><line x1="915" y1="50" x2="985" y2="50" class="al" style="animation-delay:-0.2s"/><line x1="915" y1="66" x2="985" y2="66" class="al" style="animation-delay:-0.1s"/>
<rect x="1024" y="60" width="140" height="6" rx="3" fill="#0f2e22"/><rect x="1024" y="60" width="140" height="6" rx="3" class="bar"/>
<text x="1164" y="50" text-anchor="end" class="m" style="font-size:22px;fill:#86efac;animation:t0 10s infinite">36°C</text><text x="1164" y="50" text-anchor="end" class="m" style="font-size:22px;fill:#86efac;animation:t1 10s infinite">44°C</text><text x="1164" y="50" text-anchor="end" class="m" style="font-size:22px;fill:#fbbf24;animation:t2 10s infinite">52°C</text><text x="1164" y="50" text-anchor="end" class="m" style="font-size:22px;fill:#f87171;animation:t3 10s infinite">61°C</text><text x="1164" y="50" text-anchor="end" class="m" style="font-size:22px;fill:#fbbf24;animation:t4 10s infinite">55°C</text><text x="1164" y="50" text-anchor="end" class="m" style="font-size:22px;fill:#fbbf24;animation:t5 10s infinite">48°C</text><text x="1164" y="50" text-anchor="end" class="m" style="font-size:22px;fill:#86efac;animation:t6 10s infinite">40°C</text><text x="1164" y="84" text-anchor="end" class="m" style="font-size:10px;fill:#86efac;animation:s0 10s infinite">ASSEMBLING…</text><text x="1164" y="84" text-anchor="end" class="m" style="font-size:10px;fill:#f87171;animation:s1 10s infinite">THERMAL LOAD</text><text x="1164" y="84" text-anchor="end" class="m" style="font-size:10px;fill:#67e8f9;animation:s2 10s infinite">COOLING</text><text x="1164" y="84" text-anchor="end" class="m" style="font-size:10px;fill:#4ade80;animation:s3 10s infinite">STABLE ✓</text>
</svg>